G04 #@! TF.FileFunction,Legend,Top*
%FSLAX46Y46*%
G04 Gerber Fmt 4.6, Leading zero omitted, Abs format (unit mm)*
G04 Created by KiCad (PCBNEW 4.0.7) date 08/23/19 12:17:46*
%MOMM*%
%LPD*%
G01*
G04 APERTURE LIST*
%ADD10C,0.100000*%
%ADD11C,0.150000*%
%ADD12C,0.120000*%
G04 APERTURE END LIST*
D10*
D11*
X154051191Y-109688381D02*
X154384524Y-110688381D01*
X154717858Y-109688381D01*
X155575001Y-110688381D02*
X155003572Y-110688381D01*
X155289286Y-110688381D02*
X155289286Y-109688381D01*
X155194048Y-109831238D01*
X155098810Y-109926476D01*
X155003572Y-109974095D01*
X156003572Y-110593143D02*
X156051191Y-110640762D01*
X156003572Y-110688381D01*
X155955953Y-110640762D01*
X156003572Y-110593143D01*
X156003572Y-110688381D01*
X156670238Y-109688381D02*
X156765477Y-109688381D01*
X156860715Y-109736000D01*
X156908334Y-109783619D01*
X156955953Y-109878857D01*
X157003572Y-110069333D01*
X157003572Y-110307429D01*
X156955953Y-110497905D01*
X156908334Y-110593143D01*
X156860715Y-110640762D01*
X156765477Y-110688381D01*
X156670238Y-110688381D01*
X156575000Y-110640762D01*
X156527381Y-110593143D01*
X156479762Y-110497905D01*
X156432143Y-110307429D01*
X156432143Y-110069333D01*
X156479762Y-109878857D01*
X156527381Y-109783619D01*
X156575000Y-109736000D01*
X156670238Y-109688381D01*
X152860714Y-108513571D02*
X153003571Y-108561190D01*
X153051190Y-108608810D01*
X153098809Y-108704048D01*
X153098809Y-108846905D01*
X153051190Y-108942143D01*
X153003571Y-108989762D01*
X152908333Y-109037381D01*
X152527380Y-109037381D01*
X152527380Y-108037381D01*
X152860714Y-108037381D01*
X152955952Y-108085000D01*
X153003571Y-108132619D01*
X153051190Y-108227857D01*
X153051190Y-108323095D01*
X153003571Y-108418333D01*
X152955952Y-108465952D01*
X152860714Y-108513571D01*
X152527380Y-108513571D01*
X153527380Y-109037381D02*
X153527380Y-108370714D01*
X153527380Y-108561190D02*
X153574999Y-108465952D01*
X153622618Y-108418333D01*
X153717856Y-108370714D01*
X153813095Y-108370714D01*
X154527381Y-108989762D02*
X154432143Y-109037381D01*
X154241666Y-109037381D01*
X154146428Y-108989762D01*
X154098809Y-108894524D01*
X154098809Y-108513571D01*
X154146428Y-108418333D01*
X154241666Y-108370714D01*
X154432143Y-108370714D01*
X154527381Y-108418333D01*
X154575000Y-108513571D01*
X154575000Y-108608810D01*
X154098809Y-108704048D01*
X155432143Y-109037381D02*
X155432143Y-108513571D01*
X155384524Y-108418333D01*
X155289286Y-108370714D01*
X155098809Y-108370714D01*
X155003571Y-108418333D01*
X155432143Y-108989762D02*
X155336905Y-109037381D01*
X155098809Y-109037381D01*
X155003571Y-108989762D01*
X154955952Y-108894524D01*
X154955952Y-108799286D01*
X155003571Y-108704048D01*
X155098809Y-108656429D01*
X155336905Y-108656429D01*
X155432143Y-108608810D01*
X155908333Y-109037381D02*
X155908333Y-108037381D01*
X156003571Y-108656429D02*
X156289286Y-109037381D01*
X156289286Y-108370714D02*
X155908333Y-108751667D01*
X156860714Y-109037381D02*
X156765476Y-108989762D01*
X156717857Y-108942143D01*
X156670238Y-108846905D01*
X156670238Y-108561190D01*
X156717857Y-108465952D01*
X156765476Y-108418333D01*
X156860714Y-108370714D01*
X157003572Y-108370714D01*
X157098810Y-108418333D01*
X157146429Y-108465952D01*
X157194048Y-108561190D01*
X157194048Y-108846905D01*
X157146429Y-108942143D01*
X157098810Y-108989762D01*
X157003572Y-109037381D01*
X156860714Y-109037381D01*
X158051191Y-108370714D02*
X158051191Y-109037381D01*
X157622619Y-108370714D02*
X157622619Y-108894524D01*
X157670238Y-108989762D01*
X157765476Y-109037381D01*
X157908334Y-109037381D01*
X158003572Y-108989762D01*
X158051191Y-108942143D01*
X158384524Y-108370714D02*
X158765476Y-108370714D01*
X158527381Y-108037381D02*
X158527381Y-108894524D01*
X158575000Y-108989762D01*
X158670238Y-109037381D01*
X158765476Y-109037381D01*
X151503572Y-107386381D02*
X151503572Y-106386381D01*
X152551191Y-107291143D02*
X152503572Y-107338762D01*
X152360715Y-107386381D01*
X152265477Y-107386381D01*
X152122619Y-107338762D01*
X152027381Y-107243524D01*
X151979762Y-107148286D01*
X151932143Y-106957810D01*
X151932143Y-106814952D01*
X151979762Y-106624476D01*
X152027381Y-106529238D01*
X152122619Y-106434000D01*
X152265477Y-106386381D01*
X152360715Y-106386381D01*
X152503572Y-106434000D01*
X152551191Y-106481619D01*
X152979762Y-107386381D02*
X152979762Y-106386381D01*
X153313096Y-107100667D01*
X153646429Y-106386381D01*
X153646429Y-107386381D01*
X154122619Y-107005429D02*
X154884524Y-107005429D01*
X155313095Y-106481619D02*
X155360714Y-106434000D01*
X155455952Y-106386381D01*
X155694048Y-106386381D01*
X155789286Y-106434000D01*
X155836905Y-106481619D01*
X155884524Y-106576857D01*
X155884524Y-106672095D01*
X155836905Y-106814952D01*
X155265476Y-107386381D01*
X155884524Y-107386381D01*
X156503571Y-106386381D02*
X156598810Y-106386381D01*
X156694048Y-106434000D01*
X156741667Y-106481619D01*
X156789286Y-106576857D01*
X156836905Y-106767333D01*
X156836905Y-107005429D01*
X156789286Y-107195905D01*
X156741667Y-107291143D01*
X156694048Y-107338762D01*
X156598810Y-107386381D01*
X156503571Y-107386381D01*
X156408333Y-107338762D01*
X156360714Y-107291143D01*
X156313095Y-107195905D01*
X156265476Y-107005429D01*
X156265476Y-106767333D01*
X156313095Y-106576857D01*
X156360714Y-106481619D01*
X156408333Y-106434000D01*
X156503571Y-106386381D01*
X157694048Y-106386381D02*
X157503571Y-106386381D01*
X157408333Y-106434000D01*
X157360714Y-106481619D01*
X157265476Y-106624476D01*
X157217857Y-106814952D01*
X157217857Y-107195905D01*
X157265476Y-107291143D01*
X157313095Y-107338762D01*
X157408333Y-107386381D01*
X157598810Y-107386381D01*
X157694048Y-107338762D01*
X157741667Y-107291143D01*
X157789286Y-107195905D01*
X157789286Y-106957810D01*
X157741667Y-106862571D01*
X157694048Y-106814952D01*
X157598810Y-106767333D01*
X157408333Y-106767333D01*
X157313095Y-106814952D01*
X157265476Y-106862571D01*
X157217857Y-106957810D01*
X158408333Y-106386381D02*
X158503572Y-106386381D01*
X158598810Y-106434000D01*
X158646429Y-106481619D01*
X158694048Y-106576857D01*
X158741667Y-106767333D01*
X158741667Y-107005429D01*
X158694048Y-107195905D01*
X158646429Y-107291143D01*
X158598810Y-107338762D01*
X158503572Y-107386381D01*
X158408333Y-107386381D01*
X158313095Y-107338762D01*
X158265476Y-107291143D01*
X158217857Y-107195905D01*
X158170238Y-107005429D01*
X158170238Y-106767333D01*
X158217857Y-106576857D01*
X158265476Y-106481619D01*
X158313095Y-106434000D01*
X158408333Y-106386381D01*
X159360714Y-106386381D02*
X159455953Y-106386381D01*
X159551191Y-106434000D01*
X159598810Y-106481619D01*
X159646429Y-106576857D01*
X159694048Y-106767333D01*
X159694048Y-107005429D01*
X159646429Y-107195905D01*
X159598810Y-107291143D01*
X159551191Y-107338762D01*
X159455953Y-107386381D01*
X159360714Y-107386381D01*
X159265476Y-107338762D01*
X159217857Y-107291143D01*
X159170238Y-107195905D01*
X159122619Y-107005429D01*
X159122619Y-106767333D01*
X159170238Y-106576857D01*
X159217857Y-106481619D01*
X159265476Y-106434000D01*
X159360714Y-106386381D01*
X141446490Y-97474415D02*
X142235165Y-98173773D01*
X142023841Y-97141081D01*
X143259769Y-97472247D02*
X143242339Y-97537296D01*
X143142431Y-97649963D01*
X143059952Y-97697582D01*
X142912424Y-97727772D01*
X142782326Y-97692913D01*
X142693468Y-97634244D01*
X142556991Y-97493096D01*
X142485562Y-97369377D01*
X142431563Y-97180611D01*
X142425183Y-97074323D01*
X142460043Y-96944225D01*
X142559952Y-96831557D01*
X142642431Y-96783938D01*
X142789958Y-96753749D01*
X142855007Y-96771179D01*
X144125794Y-96972247D02*
X144108364Y-97037296D01*
X144008456Y-97149963D01*
X143925978Y-97197582D01*
X143778449Y-97227772D01*
X143648352Y-97192913D01*
X143559494Y-97134244D01*
X143423016Y-96993096D01*
X143351587Y-96869377D01*
X143297589Y-96680611D01*
X143291209Y-96574323D01*
X143326068Y-96444225D01*
X143425978Y-96331557D01*
X143508456Y-96283938D01*
X143655983Y-96253749D01*
X143721032Y-96271179D01*
X144586399Y-98227772D02*
X144733926Y-98197583D01*
X144940123Y-98078535D01*
X144998792Y-97989677D01*
X145016222Y-97924628D01*
X145009842Y-97818340D01*
X144962223Y-97735861D01*
X144873365Y-97677192D01*
X144808316Y-97659763D01*
X144702028Y-97666141D01*
X144513260Y-97720141D01*
X144406972Y-97726520D01*
X144341923Y-97709091D01*
X144253065Y-97650422D01*
X144205446Y-97567943D01*
X144199066Y-97461655D01*
X144216496Y-97396606D01*
X144275165Y-97307748D01*
X144481362Y-97188700D01*
X144628890Y-97158511D01*
X145923486Y-97400818D02*
X145906057Y-97465867D01*
X145806148Y-97578535D01*
X145723670Y-97626154D01*
X145576142Y-97656344D01*
X145446044Y-97621484D01*
X145357186Y-97562815D01*
X145220709Y-97421668D01*
X145149280Y-97297949D01*
X145095281Y-97109182D01*
X145088901Y-97002894D01*
X145123761Y-96872797D01*
X145223670Y-96760129D01*
X145306148Y-96712510D01*
X145453676Y-96682320D01*
X145518724Y-96699750D01*
X146754652Y-97030916D02*
X146342259Y-97269011D01*
X145842259Y-96402986D01*
X147105778Y-98239677D02*
X147253306Y-98209488D01*
X147459503Y-98090440D01*
X147518172Y-98001582D01*
X147535602Y-97936533D01*
X147529222Y-97830245D01*
X147481603Y-97747766D01*
X147392745Y-97689097D01*
X147327696Y-97671668D01*
X147221407Y-97678046D01*
X147032640Y-97732046D01*
X146926352Y-97738425D01*
X146861303Y-97720996D01*
X146772445Y-97662327D01*
X146724826Y-97579848D01*
X146718446Y-97473560D01*
X146735876Y-97408511D01*
X146794545Y-97319653D01*
X147000742Y-97200605D01*
X147148270Y-97170416D01*
X147995613Y-97780916D02*
X147495613Y-96914891D01*
X147701810Y-96795844D01*
X147849338Y-96765654D01*
X147979435Y-96800513D01*
X148068294Y-96859182D01*
X148204771Y-97000330D01*
X148276200Y-97124049D01*
X148330199Y-97312815D01*
X148336578Y-97419103D01*
X148301719Y-97549201D01*
X148201810Y-97661869D01*
X147995613Y-97780916D01*
X148677543Y-97057290D02*
X149089936Y-96819195D01*
X148737921Y-97352345D02*
X148526596Y-96319653D01*
X149315272Y-97019011D01*
X149525251Y-98364249D02*
X149025251Y-97498224D01*
X149937644Y-98126154D02*
X149437644Y-97260129D01*
X150432516Y-97840440D01*
X149932516Y-96974415D01*
X150221191Y-96807748D02*
X150716063Y-96522034D01*
X150968626Y-97530916D02*
X150468626Y-96664891D01*
X151958370Y-96959487D02*
X151463498Y-97245202D01*
X151710934Y-97102345D02*
X151210934Y-96236320D01*
X151199884Y-96407656D01*
X151165024Y-96537754D01*
X151106355Y-96626612D01*
X152065251Y-98364249D02*
X151565251Y-97498224D01*
X152477644Y-98126154D02*
X151977644Y-97260129D01*
X152972516Y-97840440D01*
X152472516Y-96974415D01*
X152761191Y-96807748D02*
X153256063Y-96522034D01*
X153508626Y-97530916D02*
X153008626Y-96664891D01*
X153551117Y-96461655D02*
X153568547Y-96396606D01*
X153627216Y-96307748D01*
X153833413Y-96188700D01*
X153939701Y-96182320D01*
X154004750Y-96199750D01*
X154093608Y-96258419D01*
X154141227Y-96340898D01*
X154171416Y-96488425D01*
X153962259Y-97269011D01*
X154498370Y-96959487D01*
X154665172Y-97229939D02*
X154558884Y-97236319D01*
X154435166Y-97307748D01*
X154335257Y-97420416D01*
X154300397Y-97550513D01*
X154306777Y-97656801D01*
X154360776Y-97845568D01*
X154432205Y-97969287D01*
X154568682Y-98110434D01*
X154657540Y-98169103D01*
X154787638Y-98203963D01*
X154935166Y-98173773D01*
X155017644Y-98126154D01*
X155117553Y-98013486D01*
X155134983Y-97948437D01*
X154968316Y-97659763D01*
X154803359Y-97755001D01*
X155553755Y-97816630D02*
X155053755Y-96950605D01*
X156048627Y-97530916D01*
X155548627Y-96664891D01*
X156461020Y-97292821D02*
X155961020Y-96426796D01*
X156167216Y-96307748D01*
X156314744Y-96277558D01*
X156444842Y-96312418D01*
X156533700Y-96371087D01*
X156670177Y-96512234D01*
X156741606Y-96635953D01*
X156795605Y-96824720D01*
X156801985Y-96931008D01*
X156767125Y-97061105D01*
X156667216Y-97173773D01*
X156461020Y-97292821D01*
D12*
X141894000Y-108173000D02*
X141894000Y-107473000D01*
X143094000Y-107473000D02*
X143094000Y-108173000D01*
X149575000Y-105629000D02*
X148875000Y-105629000D01*
X148875000Y-104429000D02*
X149575000Y-104429000D01*
X148244000Y-108173000D02*
X148244000Y-107473000D01*
X149444000Y-107473000D02*
X149444000Y-108173000D01*
X153385000Y-103470000D02*
X152685000Y-103470000D01*
X152685000Y-102270000D02*
X153385000Y-102270000D01*
X153385000Y-105375000D02*
X152685000Y-105375000D01*
X152685000Y-104175000D02*
X153385000Y-104175000D01*
X153385000Y-101565000D02*
X152685000Y-101565000D01*
X152685000Y-100365000D02*
X153385000Y-100365000D01*
X156905000Y-95945000D02*
X156905000Y-93285000D01*
X144145000Y-95945000D02*
X156905000Y-95945000D01*
X144145000Y-93285000D02*
X156905000Y-93285000D01*
X144145000Y-95945000D02*
X144145000Y-93285000D01*
X142875000Y-95945000D02*
X141545000Y-95945000D01*
X141545000Y-95945000D02*
X141545000Y-94615000D01*
X138962500Y-99735000D02*
G75*
G03X138962500Y-99735000I-250000J0D01*
G01*
X133887500Y-100335000D02*
X133887500Y-104135000D01*
X135787500Y-99235000D02*
X138137500Y-99235000D01*
X138137500Y-99235000D02*
X138137500Y-100135000D01*
X138137500Y-99735000D02*
X136937500Y-99735000D01*
X136937500Y-99735000D02*
X136937500Y-99735000D01*
X136937500Y-99735000D02*
X138137500Y-99735000D01*
X138137500Y-99735000D02*
X138137500Y-99735000D01*
X137637500Y-99735000D02*
X137637500Y-99735000D01*
X137637500Y-99735000D02*
X137637500Y-99235000D01*
X137637500Y-99235000D02*
X137637500Y-99235000D01*
X137637500Y-99235000D02*
X137637500Y-99735000D01*
X136937500Y-99735000D02*
X136937500Y-99735000D01*
X136937500Y-99735000D02*
X136937500Y-99235000D01*
X136937500Y-99235000D02*
X136937500Y-99235000D01*
X136937500Y-99235000D02*
X136937500Y-99735000D01*
X135787500Y-105235000D02*
X138137500Y-105235000D01*
X138137500Y-105235000D02*
X138137500Y-104335000D01*
X138137500Y-104735000D02*
X136937500Y-104735000D01*
X136937500Y-104735000D02*
X136937500Y-104735000D01*
X136937500Y-104735000D02*
X138137500Y-104735000D01*
X138137500Y-104735000D02*
X138137500Y-104735000D01*
X137637500Y-104735000D02*
X137637500Y-104735000D01*
X137637500Y-104735000D02*
X137637500Y-105235000D01*
X137637500Y-105235000D02*
X137637500Y-105235000D01*
X137637500Y-105235000D02*
X137637500Y-104735000D01*
X136937500Y-104735000D02*
X136937500Y-104735000D01*
X136937500Y-104735000D02*
X136937500Y-105235000D01*
X136937500Y-105235000D02*
X136937500Y-105235000D01*
X136937500Y-105235000D02*
X136937500Y-104735000D01*
X159987500Y-104735000D02*
G75*
G03X159987500Y-104735000I-250000J0D01*
G01*
X164562500Y-104135000D02*
X164562500Y-100335000D01*
X162662500Y-105235000D02*
X160312500Y-105235000D01*
X160312500Y-105235000D02*
X160312500Y-104335000D01*
X160312500Y-104735000D02*
X161512500Y-104735000D01*
X161512500Y-104735000D02*
X161512500Y-104735000D01*
X161512500Y-104735000D02*
X160312500Y-104735000D01*
X160312500Y-104735000D02*
X160312500Y-104735000D01*
X160812500Y-104735000D02*
X160812500Y-104735000D01*
X160812500Y-104735000D02*
X160812500Y-105235000D01*
X160812500Y-105235000D02*
X160812500Y-105235000D01*
X160812500Y-105235000D02*
X160812500Y-104735000D01*
X161512500Y-104735000D02*
X161512500Y-104735000D01*
X161512500Y-104735000D02*
X161512500Y-105235000D01*
X161512500Y-105235000D02*
X161512500Y-105235000D01*
X161512500Y-105235000D02*
X161512500Y-104735000D01*
X162662500Y-99235000D02*
X160312500Y-99235000D01*
X160312500Y-99235000D02*
X160312500Y-100135000D01*
X160312500Y-99735000D02*
X161512500Y-99735000D01*
X161512500Y-99735000D02*
X161512500Y-99735000D01*
X161512500Y-99735000D02*
X160312500Y-99735000D01*
X160312500Y-99735000D02*
X160312500Y-99735000D01*
X160812500Y-99735000D02*
X160812500Y-99735000D01*
X160812500Y-99735000D02*
X160812500Y-99235000D01*
X160812500Y-99235000D02*
X160812500Y-99235000D01*
X160812500Y-99235000D02*
X160812500Y-99735000D01*
X161512500Y-99735000D02*
X161512500Y-99735000D01*
X161512500Y-99735000D02*
X161512500Y-99235000D01*
X161512500Y-99235000D02*
X161512500Y-99235000D01*
X161512500Y-99235000D02*
X161512500Y-99735000D01*
X144010000Y-99867000D02*
X143010000Y-99867000D01*
X143010000Y-98507000D02*
X144010000Y-98507000D01*
X148455000Y-99867000D02*
X147455000Y-99867000D01*
X147455000Y-98507000D02*
X148455000Y-98507000D01*
X150376000Y-98507000D02*
X151376000Y-98507000D01*
X151376000Y-99867000D02*
X150376000Y-99867000D01*
X143010000Y-104730000D02*
X144010000Y-104730000D01*
X144010000Y-106090000D02*
X143010000Y-106090000D01*
X144010000Y-101518000D02*
X143010000Y-101518000D01*
X143010000Y-100158000D02*
X144010000Y-100158000D01*
X144769000Y-109814000D02*
X146569000Y-109814000D01*
X146569000Y-106594000D02*
X144119000Y-106594000D01*
D10*
X147525000Y-100885000D02*
X148345000Y-100885000D01*
X147625000Y-103585000D02*
X148345000Y-103585000D01*
X147625000Y-103585000D02*
X147625000Y-103365000D01*
X150825000Y-103365000D02*
X150825000Y-103585000D01*
X150825000Y-103585000D02*
X150105000Y-103585000D01*
X150105000Y-100885000D02*
X150825000Y-100885000D01*
X150825000Y-100885000D02*
X150825000Y-101105000D01*
D12*
X142683000Y-104284000D02*
X144583000Y-104284000D01*
X144083000Y-101964000D02*
X142683000Y-101964000D01*
D11*
X141454143Y-107989666D02*
X141501762Y-108037285D01*
X141549381Y-108180142D01*
X141549381Y-108275380D01*
X141501762Y-108418238D01*
X141406524Y-108513476D01*
X141311286Y-108561095D01*
X141120810Y-108608714D01*
X140977952Y-108608714D01*
X140787476Y-108561095D01*
X140692238Y-108513476D01*
X140597000Y-108418238D01*
X140549381Y-108275380D01*
X140549381Y-108180142D01*
X140597000Y-108037285D01*
X140644619Y-107989666D01*
X141549381Y-107037285D02*
X141549381Y-107608714D01*
X141549381Y-107323000D02*
X140549381Y-107323000D01*
X140692238Y-107418238D01*
X140787476Y-107513476D01*
X140835095Y-107608714D01*
X146518334Y-105386143D02*
X146470715Y-105433762D01*
X146327858Y-105481381D01*
X146232620Y-105481381D01*
X146089762Y-105433762D01*
X145994524Y-105338524D01*
X145946905Y-105243286D01*
X145899286Y-105052810D01*
X145899286Y-104909952D01*
X145946905Y-104719476D01*
X145994524Y-104624238D01*
X146089762Y-104529000D01*
X146232620Y-104481381D01*
X146327858Y-104481381D01*
X146470715Y-104529000D01*
X146518334Y-104576619D01*
X146899286Y-104576619D02*
X146946905Y-104529000D01*
X147042143Y-104481381D01*
X147280239Y-104481381D01*
X147375477Y-104529000D01*
X147423096Y-104576619D01*
X147470715Y-104671857D01*
X147470715Y-104767095D01*
X147423096Y-104909952D01*
X146851667Y-105481381D01*
X147470715Y-105481381D01*
X150701143Y-107989666D02*
X150748762Y-108037285D01*
X150796381Y-108180142D01*
X150796381Y-108275380D01*
X150748762Y-108418238D01*
X150653524Y-108513476D01*
X150558286Y-108561095D01*
X150367810Y-108608714D01*
X150224952Y-108608714D01*
X150034476Y-108561095D01*
X149939238Y-108513476D01*
X149844000Y-108418238D01*
X149796381Y-108275380D01*
X149796381Y-108180142D01*
X149844000Y-108037285D01*
X149891619Y-107989666D01*
X149796381Y-107656333D02*
X149796381Y-107037285D01*
X150177333Y-107370619D01*
X150177333Y-107227761D01*
X150224952Y-107132523D01*
X150272571Y-107084904D01*
X150367810Y-107037285D01*
X150605905Y-107037285D01*
X150701143Y-107084904D01*
X150748762Y-107132523D01*
X150796381Y-107227761D01*
X150796381Y-107513476D01*
X150748762Y-107608714D01*
X150701143Y-107656333D01*
X155408334Y-103227143D02*
X155360715Y-103274762D01*
X155217858Y-103322381D01*
X155122620Y-103322381D01*
X154979762Y-103274762D01*
X154884524Y-103179524D01*
X154836905Y-103084286D01*
X154789286Y-102893810D01*
X154789286Y-102750952D01*
X154836905Y-102560476D01*
X154884524Y-102465238D01*
X154979762Y-102370000D01*
X155122620Y-102322381D01*
X155217858Y-102322381D01*
X155360715Y-102370000D01*
X155408334Y-102417619D01*
X156265477Y-102655714D02*
X156265477Y-103322381D01*
X156027381Y-102274762D02*
X155789286Y-102989048D01*
X156408334Y-102989048D01*
X155408334Y-105132143D02*
X155360715Y-105179762D01*
X155217858Y-105227381D01*
X155122620Y-105227381D01*
X154979762Y-105179762D01*
X154884524Y-105084524D01*
X154836905Y-104989286D01*
X154789286Y-104798810D01*
X154789286Y-104655952D01*
X154836905Y-104465476D01*
X154884524Y-104370238D01*
X154979762Y-104275000D01*
X155122620Y-104227381D01*
X155217858Y-104227381D01*
X155360715Y-104275000D01*
X155408334Y-104322619D01*
X156313096Y-104227381D02*
X155836905Y-104227381D01*
X155789286Y-104703571D01*
X155836905Y-104655952D01*
X155932143Y-104608333D01*
X156170239Y-104608333D01*
X156265477Y-104655952D01*
X156313096Y-104703571D01*
X156360715Y-104798810D01*
X156360715Y-105036905D01*
X156313096Y-105132143D01*
X156265477Y-105179762D01*
X156170239Y-105227381D01*
X155932143Y-105227381D01*
X155836905Y-105179762D01*
X155789286Y-105132143D01*
X155408334Y-101322143D02*
X155360715Y-101369762D01*
X155217858Y-101417381D01*
X155122620Y-101417381D01*
X154979762Y-101369762D01*
X154884524Y-101274524D01*
X154836905Y-101179286D01*
X154789286Y-100988810D01*
X154789286Y-100845952D01*
X154836905Y-100655476D01*
X154884524Y-100560238D01*
X154979762Y-100465000D01*
X155122620Y-100417381D01*
X155217858Y-100417381D01*
X155360715Y-100465000D01*
X155408334Y-100512619D01*
X156265477Y-100417381D02*
X156075000Y-100417381D01*
X155979762Y-100465000D01*
X155932143Y-100512619D01*
X155836905Y-100655476D01*
X155789286Y-100845952D01*
X155789286Y-101226905D01*
X155836905Y-101322143D01*
X155884524Y-101369762D01*
X155979762Y-101417381D01*
X156170239Y-101417381D01*
X156265477Y-101369762D01*
X156313096Y-101322143D01*
X156360715Y-101226905D01*
X156360715Y-100988810D01*
X156313096Y-100893571D01*
X156265477Y-100845952D01*
X156170239Y-100798333D01*
X155979762Y-100798333D01*
X155884524Y-100845952D01*
X155836905Y-100893571D01*
X155789286Y-100988810D01*
X139997381Y-94948333D02*
X140711667Y-94948333D01*
X140854524Y-94995953D01*
X140949762Y-95091191D01*
X140997381Y-95234048D01*
X140997381Y-95329286D01*
X140997381Y-93948333D02*
X140997381Y-94519762D01*
X140997381Y-94234048D02*
X139997381Y-94234048D01*
X140140238Y-94329286D01*
X140235476Y-94424524D01*
X140283095Y-94519762D01*
X138096667Y-97750381D02*
X138096667Y-98464667D01*
X138049047Y-98607524D01*
X137953809Y-98702762D01*
X137810952Y-98750381D01*
X137715714Y-98750381D01*
X138525238Y-97845619D02*
X138572857Y-97798000D01*
X138668095Y-97750381D01*
X138906191Y-97750381D01*
X139001429Y-97798000D01*
X139049048Y-97845619D01*
X139096667Y-97940857D01*
X139096667Y-98036095D01*
X139049048Y-98178952D01*
X138477619Y-98750381D01*
X139096667Y-98750381D01*
X159686667Y-97750381D02*
X159686667Y-98464667D01*
X159639047Y-98607524D01*
X159543809Y-98702762D01*
X159400952Y-98750381D01*
X159305714Y-98750381D01*
X160067619Y-97750381D02*
X160686667Y-97750381D01*
X160353333Y-98131333D01*
X160496191Y-98131333D01*
X160591429Y-98178952D01*
X160639048Y-98226571D01*
X160686667Y-98321810D01*
X160686667Y-98559905D01*
X160639048Y-98655143D01*
X160591429Y-98702762D01*
X160496191Y-98750381D01*
X160210476Y-98750381D01*
X160115238Y-98702762D01*
X160067619Y-98655143D01*
X141057334Y-99639381D02*
X140724000Y-99163190D01*
X140485905Y-99639381D02*
X140485905Y-98639381D01*
X140866858Y-98639381D01*
X140962096Y-98687000D01*
X141009715Y-98734619D01*
X141057334Y-98829857D01*
X141057334Y-98972714D01*
X141009715Y-99067952D01*
X140962096Y-99115571D01*
X140866858Y-99163190D01*
X140485905Y-99163190D01*
X142009715Y-99639381D02*
X141438286Y-99639381D01*
X141724000Y-99639381D02*
X141724000Y-98639381D01*
X141628762Y-98782238D01*
X141533524Y-98877476D01*
X141438286Y-98925095D01*
X146375381Y-99353666D02*
X145899190Y-99687000D01*
X146375381Y-99925095D02*
X145375381Y-99925095D01*
X145375381Y-99544142D01*
X145423000Y-99448904D01*
X145470619Y-99401285D01*
X145565857Y-99353666D01*
X145708714Y-99353666D01*
X145803952Y-99401285D01*
X145851571Y-99448904D01*
X145899190Y-99544142D01*
X145899190Y-99925095D01*
X145470619Y-98972714D02*
X145423000Y-98925095D01*
X145375381Y-98829857D01*
X145375381Y-98591761D01*
X145423000Y-98496523D01*
X145470619Y-98448904D01*
X145565857Y-98401285D01*
X145661095Y-98401285D01*
X145803952Y-98448904D01*
X146375381Y-99020333D01*
X146375381Y-98401285D01*
X153122334Y-99639381D02*
X152789000Y-99163190D01*
X152550905Y-99639381D02*
X152550905Y-98639381D01*
X152931858Y-98639381D01*
X153027096Y-98687000D01*
X153074715Y-98734619D01*
X153122334Y-98829857D01*
X153122334Y-98972714D01*
X153074715Y-99067952D01*
X153027096Y-99115571D01*
X152931858Y-99163190D01*
X152550905Y-99163190D01*
X153455667Y-98639381D02*
X154074715Y-98639381D01*
X153741381Y-99020333D01*
X153884239Y-99020333D01*
X153979477Y-99067952D01*
X154027096Y-99115571D01*
X154074715Y-99210810D01*
X154074715Y-99448905D01*
X154027096Y-99544143D01*
X153979477Y-99591762D01*
X153884239Y-99639381D01*
X153598524Y-99639381D01*
X153503286Y-99591762D01*
X153455667Y-99544143D01*
X141057334Y-105862381D02*
X140724000Y-105386190D01*
X140485905Y-105862381D02*
X140485905Y-104862381D01*
X140866858Y-104862381D01*
X140962096Y-104910000D01*
X141009715Y-104957619D01*
X141057334Y-105052857D01*
X141057334Y-105195714D01*
X141009715Y-105290952D01*
X140962096Y-105338571D01*
X140866858Y-105386190D01*
X140485905Y-105386190D01*
X141914477Y-105195714D02*
X141914477Y-105862381D01*
X141676381Y-104814762D02*
X141438286Y-105529048D01*
X142057334Y-105529048D01*
X141057334Y-101290381D02*
X140724000Y-100814190D01*
X140485905Y-101290381D02*
X140485905Y-100290381D01*
X140866858Y-100290381D01*
X140962096Y-100338000D01*
X141009715Y-100385619D01*
X141057334Y-100480857D01*
X141057334Y-100623714D01*
X141009715Y-100718952D01*
X140962096Y-100766571D01*
X140866858Y-100814190D01*
X140485905Y-100814190D01*
X141962096Y-100290381D02*
X141485905Y-100290381D01*
X141438286Y-100766571D01*
X141485905Y-100718952D01*
X141581143Y-100671333D01*
X141819239Y-100671333D01*
X141914477Y-100718952D01*
X141962096Y-100766571D01*
X142009715Y-100861810D01*
X142009715Y-101099905D01*
X141962096Y-101195143D01*
X141914477Y-101242762D01*
X141819239Y-101290381D01*
X141581143Y-101290381D01*
X141485905Y-101242762D01*
X141438286Y-101195143D01*
X147828095Y-109561381D02*
X147828095Y-110370905D01*
X147875714Y-110466143D01*
X147923333Y-110513762D01*
X148018571Y-110561381D01*
X148209048Y-110561381D01*
X148304286Y-110513762D01*
X148351905Y-110466143D01*
X148399524Y-110370905D01*
X148399524Y-109561381D01*
X149399524Y-110561381D02*
X148828095Y-110561381D01*
X149113809Y-110561381D02*
X149113809Y-109561381D01*
X149018571Y-109704238D01*
X148923333Y-109799476D01*
X148828095Y-109847095D01*
X146010381Y-102361905D02*
X146819905Y-102361905D01*
X146915143Y-102314286D01*
X146962762Y-102266667D01*
X147010381Y-102171429D01*
X147010381Y-101980952D01*
X146962762Y-101885714D01*
X146915143Y-101838095D01*
X146819905Y-101790476D01*
X146010381Y-101790476D01*
X146105619Y-101361905D02*
X146058000Y-101314286D01*
X146010381Y-101219048D01*
X146010381Y-100980952D01*
X146058000Y-100885714D01*
X146105619Y-100838095D01*
X146200857Y-100790476D01*
X146296095Y-100790476D01*
X146438952Y-100838095D01*
X147010381Y-101409524D01*
X147010381Y-100790476D01*
X140549381Y-103377905D02*
X141358905Y-103377905D01*
X141454143Y-103330286D01*
X141501762Y-103282667D01*
X141549381Y-103187429D01*
X141549381Y-102996952D01*
X141501762Y-102901714D01*
X141454143Y-102854095D01*
X141358905Y-102806476D01*
X140549381Y-102806476D01*
X140549381Y-102425524D02*
X140549381Y-101806476D01*
X140930333Y-102139810D01*
X140930333Y-101996952D01*
X140977952Y-101901714D01*
X141025571Y-101854095D01*
X141120810Y-101806476D01*
X141358905Y-101806476D01*
X141454143Y-101854095D01*
X141501762Y-101901714D01*
X141549381Y-101996952D01*
X141549381Y-102282667D01*
X141501762Y-102377905D01*
X141454143Y-102425524D01*
M02*
