G04 #@! TF.FileFunction,Soldermask,Top*
%FSLAX46Y46*%
G04 Gerber Fmt 4.6, Leading zero omitted, Abs format (unit mm)*
G04 Created by KiCad (PCBNEW 4.0.7) date 08/23/19 12:17:46*
%MOMM*%
%LPD*%
G01*
G04 APERTURE LIST*
%ADD10C,0.100000*%
%ADD11C,4.400000*%
%ADD12R,1.150000X1.200000*%
%ADD13R,1.200000X1.150000*%
%ADD14R,2.100000X2.100000*%
%ADD15O,2.100000X2.100000*%
%ADD16R,1.950000X1.000000*%
%ADD17R,2.200000X1.600000*%
%ADD18R,0.900000X1.300000*%
%ADD19R,1.460000X1.050000*%
%ADD20R,0.650000X1.075000*%
%ADD21R,1.075000X0.650000*%
%ADD22R,1.050000X0.800000*%
G04 APERTURE END LIST*
D10*
D11*
X162687000Y-109093000D03*
X135763000Y-109093000D03*
X135763000Y-95377000D03*
D12*
X142494000Y-108573000D03*
X142494000Y-107073000D03*
D13*
X149975000Y-105029000D03*
X148475000Y-105029000D03*
D12*
X148844000Y-108573000D03*
X148844000Y-107073000D03*
D13*
X153785000Y-102870000D03*
X152285000Y-102870000D03*
X153785000Y-104775000D03*
X152285000Y-104775000D03*
X153785000Y-100965000D03*
X152285000Y-100965000D03*
D14*
X142875000Y-94615000D03*
D15*
X145415000Y-94615000D03*
X147955000Y-94615000D03*
X150495000Y-94615000D03*
X153035000Y-94615000D03*
X155575000Y-94615000D03*
D16*
X138462500Y-100735000D03*
X138462500Y-101735000D03*
X138462500Y-102735000D03*
X138462500Y-103735000D03*
D17*
X134587500Y-99435000D03*
X134587500Y-105035000D03*
D16*
X159987500Y-103735000D03*
X159987500Y-102735000D03*
X159987500Y-101735000D03*
X159987500Y-100735000D03*
D17*
X163862500Y-105035000D03*
X163862500Y-99435000D03*
D18*
X142760000Y-99187000D03*
X144260000Y-99187000D03*
X147205000Y-99187000D03*
X148705000Y-99187000D03*
X151626000Y-99187000D03*
X150126000Y-99187000D03*
X144260000Y-105410000D03*
X142760000Y-105410000D03*
X142760000Y-100838000D03*
X144260000Y-100838000D03*
D19*
X144569000Y-107254000D03*
X144569000Y-108204000D03*
X144569000Y-109154000D03*
X146769000Y-109154000D03*
X146769000Y-107254000D03*
D20*
X149225000Y-101222500D03*
X148725000Y-101222500D03*
X149725000Y-101222500D03*
X148725000Y-103247500D03*
X149225000Y-103247500D03*
X149725000Y-103247500D03*
D21*
X147962500Y-101485000D03*
X147962500Y-101985000D03*
X147962500Y-102485000D03*
X147962500Y-102985000D03*
X150487500Y-102985000D03*
X150487500Y-102485000D03*
X150487500Y-101985000D03*
X150487500Y-101485000D03*
D22*
X144333000Y-103774000D03*
X144333000Y-102474000D03*
X142433000Y-103124000D03*
X144333000Y-103124000D03*
X142433000Y-102474000D03*
X142433000Y-103774000D03*
D11*
X162687000Y-95377000D03*
M02*
