G04 #@! TF.FileFunction,Copper,L2,Bot,Signal*
%FSLAX46Y46*%
G04 Gerber Fmt 4.6, Leading zero omitted, Abs format (unit mm)*
G04 Created by KiCad (PCBNEW 4.0.7) date 08/23/19 12:17:46*
%MOMM*%
%LPD*%
G01*
G04 APERTURE LIST*
%ADD10C,0.100000*%
%ADD11C,4.000000*%
%ADD12R,1.700000X1.700000*%
%ADD13O,1.700000X1.700000*%
%ADD14R,1.270000X0.970000*%
%ADD15C,0.600000*%
%ADD16C,0.200000*%
%ADD17C,0.250000*%
%ADD18C,0.254000*%
G04 APERTURE END LIST*
D10*
D11*
X162687000Y-109093000D03*
X135763000Y-109093000D03*
X135763000Y-95377000D03*
D12*
X142875000Y-94615000D03*
D13*
X145415000Y-94615000D03*
X147955000Y-94615000D03*
X150495000Y-94615000D03*
X153035000Y-94615000D03*
X155575000Y-94615000D03*
D14*
X147066000Y-107818000D03*
X147066000Y-109098000D03*
D11*
X162687000Y-95377000D03*
D15*
X155575000Y-103759000D03*
X149987000Y-106108500D03*
X151003000Y-104013000D03*
X150241000Y-109220000D03*
X155575000Y-101854000D03*
X155067000Y-105791000D03*
X146177000Y-103886000D03*
X136779000Y-103378000D03*
X140970000Y-104140000D03*
X136779000Y-102235000D03*
X147955000Y-106172000D03*
X149225000Y-102235000D03*
X145415000Y-100711000D03*
X146431000Y-102997000D03*
X145415000Y-105791000D03*
X145415000Y-101727000D03*
D16*
X136017000Y-101727000D02*
X137033000Y-100711000D01*
X136652000Y-103378000D02*
X136017000Y-102743000D01*
X136017000Y-102743000D02*
X136017000Y-101727000D01*
X136779000Y-103378000D02*
X136652000Y-103378000D01*
X145415000Y-97409000D02*
X145415000Y-94615000D01*
X142113000Y-100711000D02*
X145415000Y-97409000D01*
X137033000Y-100711000D02*
X142113000Y-100711000D01*
D17*
X146558000Y-104267000D02*
X146177000Y-103886000D01*
X146558000Y-105791000D02*
X146558000Y-104267000D01*
X145669000Y-106680000D02*
X146558000Y-105791000D01*
X140081000Y-106680000D02*
X145669000Y-106680000D01*
X136779000Y-103378000D02*
X140081000Y-106680000D01*
D16*
X140970000Y-104140000D02*
X142494000Y-104140000D01*
X147955000Y-97409000D02*
X147955000Y-94615000D01*
X146812000Y-98552000D02*
X147955000Y-97409000D01*
X145796000Y-98552000D02*
X146812000Y-98552000D01*
X144272000Y-100076000D02*
X145796000Y-98552000D01*
X144272000Y-102362000D02*
X144272000Y-100076000D01*
X142494000Y-104140000D02*
X144272000Y-102362000D01*
D17*
X139573000Y-102743000D02*
X140970000Y-104140000D01*
X137287000Y-102743000D02*
X139573000Y-102743000D01*
X136779000Y-102235000D02*
X137287000Y-102743000D01*
D16*
X148336000Y-103886000D02*
X148336000Y-105791000D01*
X148336000Y-103886000D02*
X148336000Y-101219000D01*
X148336000Y-101219000D02*
X150495000Y-99060000D01*
X150495000Y-94615000D02*
X150495000Y-99060000D01*
X148336000Y-105791000D02*
X147955000Y-106172000D01*
X153035000Y-98425000D02*
X153035000Y-94615000D01*
X149225000Y-102235000D02*
X153035000Y-98425000D01*
X146431000Y-102997000D02*
X147066000Y-103632000D01*
X147066000Y-103632000D02*
X147066000Y-107818000D01*
X146431000Y-101727000D02*
X145415000Y-100711000D01*
X146431000Y-101854000D02*
X146431000Y-101727000D01*
X146431000Y-102997000D02*
X146431000Y-101854000D01*
X145415000Y-101727000D02*
X145415000Y-105791000D01*
D18*
G36*
X141428569Y-93513110D02*
X141377560Y-93765000D01*
X141377560Y-95465000D01*
X141421838Y-95700317D01*
X141560910Y-95916441D01*
X141773110Y-96061431D01*
X142025000Y-96112440D01*
X143725000Y-96112440D01*
X143960317Y-96068162D01*
X144176441Y-95929090D01*
X144321431Y-95716890D01*
X144335086Y-95649459D01*
X144364946Y-95694147D01*
X144680000Y-95904659D01*
X144680000Y-97104553D01*
X141808554Y-99976000D01*
X137033000Y-99976000D01*
X136751728Y-100031949D01*
X136513277Y-100191277D01*
X135497277Y-101207277D01*
X135337949Y-101445728D01*
X135282000Y-101727000D01*
X135282000Y-102743000D01*
X135332524Y-102997000D01*
X135337949Y-103024272D01*
X135497277Y-103262723D01*
X135876311Y-103641757D01*
X135985883Y-103906943D01*
X136248673Y-104170192D01*
X136592201Y-104312838D01*
X136639077Y-104312879D01*
X139543599Y-107217401D01*
X139790160Y-107382148D01*
X140081000Y-107440000D01*
X145669000Y-107440000D01*
X145783560Y-107417212D01*
X145783560Y-108303000D01*
X145811213Y-108449963D01*
X145796000Y-108486690D01*
X145796000Y-108812250D01*
X145954750Y-108971000D01*
X146939000Y-108971000D01*
X146939000Y-108951000D01*
X147193000Y-108951000D01*
X147193000Y-108971000D01*
X148177250Y-108971000D01*
X148336000Y-108812250D01*
X148336000Y-108486690D01*
X148319371Y-108446545D01*
X148348440Y-108303000D01*
X148348440Y-107333000D01*
X148304162Y-107097683D01*
X148274536Y-107051642D01*
X148483943Y-106965117D01*
X148747192Y-106702327D01*
X148889838Y-106358799D01*
X148889924Y-106259538D01*
X149015051Y-106072272D01*
X149032046Y-105986833D01*
X149071000Y-105791000D01*
X149071000Y-103169867D01*
X149410167Y-103170162D01*
X149753943Y-103028117D01*
X150017192Y-102765327D01*
X150159838Y-102421799D01*
X150159910Y-102339536D01*
X153554724Y-98944723D01*
X153714051Y-98706272D01*
X153770000Y-98425000D01*
X153770000Y-95904659D01*
X154085054Y-95694147D01*
X154312702Y-95353447D01*
X154379817Y-95496358D01*
X154808076Y-95886645D01*
X155218110Y-96056476D01*
X155448000Y-95935155D01*
X155448000Y-94742000D01*
X155702000Y-94742000D01*
X155702000Y-95935155D01*
X155931890Y-96056476D01*
X156341924Y-95886645D01*
X156770183Y-95496358D01*
X157016486Y-94971892D01*
X156895819Y-94742000D01*
X155702000Y-94742000D01*
X155448000Y-94742000D01*
X155428000Y-94742000D01*
X155428000Y-94488000D01*
X155448000Y-94488000D01*
X155448000Y-94468000D01*
X155702000Y-94468000D01*
X155702000Y-94488000D01*
X156895819Y-94488000D01*
X157016486Y-94258108D01*
X156770183Y-93733642D01*
X156426026Y-93420000D01*
X160917709Y-93420000D01*
X160454458Y-93882443D01*
X160052458Y-94850567D01*
X160051543Y-95898834D01*
X160451853Y-96867658D01*
X161192443Y-97609542D01*
X162160567Y-98011542D01*
X163208834Y-98012457D01*
X164177658Y-97612147D01*
X164644000Y-97146618D01*
X164644000Y-107323709D01*
X164181557Y-106860458D01*
X163213433Y-106458458D01*
X162165166Y-106457543D01*
X161196342Y-106857853D01*
X160454458Y-107598443D01*
X160052458Y-108566567D01*
X160051543Y-109614834D01*
X160451853Y-110583658D01*
X160917382Y-111050000D01*
X137532291Y-111050000D01*
X137995542Y-110587557D01*
X138397542Y-109619433D01*
X138397747Y-109383750D01*
X145796000Y-109383750D01*
X145796000Y-109709310D01*
X145892673Y-109942699D01*
X146071302Y-110121327D01*
X146304691Y-110218000D01*
X146780250Y-110218000D01*
X146939000Y-110059250D01*
X146939000Y-109225000D01*
X147193000Y-109225000D01*
X147193000Y-110059250D01*
X147351750Y-110218000D01*
X147827309Y-110218000D01*
X148060698Y-110121327D01*
X148239327Y-109942699D01*
X148336000Y-109709310D01*
X148336000Y-109383750D01*
X148177250Y-109225000D01*
X147193000Y-109225000D01*
X146939000Y-109225000D01*
X145954750Y-109225000D01*
X145796000Y-109383750D01*
X138397747Y-109383750D01*
X138398457Y-108571166D01*
X137998147Y-107602342D01*
X137257557Y-106860458D01*
X136289433Y-106458458D01*
X135241166Y-106457543D01*
X134272342Y-106857853D01*
X133806000Y-107323382D01*
X133806000Y-97146291D01*
X134268443Y-97609542D01*
X135236567Y-98011542D01*
X136284834Y-98012457D01*
X137253658Y-97612147D01*
X137995542Y-96871557D01*
X138397542Y-95903433D01*
X138398457Y-94855166D01*
X137998147Y-93886342D01*
X137532618Y-93420000D01*
X141492188Y-93420000D01*
X141428569Y-93513110D01*
X141428569Y-93513110D01*
G37*
X141428569Y-93513110D02*
X141377560Y-93765000D01*
X141377560Y-95465000D01*
X141421838Y-95700317D01*
X141560910Y-95916441D01*
X141773110Y-96061431D01*
X142025000Y-96112440D01*
X143725000Y-96112440D01*
X143960317Y-96068162D01*
X144176441Y-95929090D01*
X144321431Y-95716890D01*
X144335086Y-95649459D01*
X144364946Y-95694147D01*
X144680000Y-95904659D01*
X144680000Y-97104553D01*
X141808554Y-99976000D01*
X137033000Y-99976000D01*
X136751728Y-100031949D01*
X136513277Y-100191277D01*
X135497277Y-101207277D01*
X135337949Y-101445728D01*
X135282000Y-101727000D01*
X135282000Y-102743000D01*
X135332524Y-102997000D01*
X135337949Y-103024272D01*
X135497277Y-103262723D01*
X135876311Y-103641757D01*
X135985883Y-103906943D01*
X136248673Y-104170192D01*
X136592201Y-104312838D01*
X136639077Y-104312879D01*
X139543599Y-107217401D01*
X139790160Y-107382148D01*
X140081000Y-107440000D01*
X145669000Y-107440000D01*
X145783560Y-107417212D01*
X145783560Y-108303000D01*
X145811213Y-108449963D01*
X145796000Y-108486690D01*
X145796000Y-108812250D01*
X145954750Y-108971000D01*
X146939000Y-108971000D01*
X146939000Y-108951000D01*
X147193000Y-108951000D01*
X147193000Y-108971000D01*
X148177250Y-108971000D01*
X148336000Y-108812250D01*
X148336000Y-108486690D01*
X148319371Y-108446545D01*
X148348440Y-108303000D01*
X148348440Y-107333000D01*
X148304162Y-107097683D01*
X148274536Y-107051642D01*
X148483943Y-106965117D01*
X148747192Y-106702327D01*
X148889838Y-106358799D01*
X148889924Y-106259538D01*
X149015051Y-106072272D01*
X149032046Y-105986833D01*
X149071000Y-105791000D01*
X149071000Y-103169867D01*
X149410167Y-103170162D01*
X149753943Y-103028117D01*
X150017192Y-102765327D01*
X150159838Y-102421799D01*
X150159910Y-102339536D01*
X153554724Y-98944723D01*
X153714051Y-98706272D01*
X153770000Y-98425000D01*
X153770000Y-95904659D01*
X154085054Y-95694147D01*
X154312702Y-95353447D01*
X154379817Y-95496358D01*
X154808076Y-95886645D01*
X155218110Y-96056476D01*
X155448000Y-95935155D01*
X155448000Y-94742000D01*
X155702000Y-94742000D01*
X155702000Y-95935155D01*
X155931890Y-96056476D01*
X156341924Y-95886645D01*
X156770183Y-95496358D01*
X157016486Y-94971892D01*
X156895819Y-94742000D01*
X155702000Y-94742000D01*
X155448000Y-94742000D01*
X155428000Y-94742000D01*
X155428000Y-94488000D01*
X155448000Y-94488000D01*
X155448000Y-94468000D01*
X155702000Y-94468000D01*
X155702000Y-94488000D01*
X156895819Y-94488000D01*
X157016486Y-94258108D01*
X156770183Y-93733642D01*
X156426026Y-93420000D01*
X160917709Y-93420000D01*
X160454458Y-93882443D01*
X160052458Y-94850567D01*
X160051543Y-95898834D01*
X160451853Y-96867658D01*
X161192443Y-97609542D01*
X162160567Y-98011542D01*
X163208834Y-98012457D01*
X164177658Y-97612147D01*
X164644000Y-97146618D01*
X164644000Y-107323709D01*
X164181557Y-106860458D01*
X163213433Y-106458458D01*
X162165166Y-106457543D01*
X161196342Y-106857853D01*
X160454458Y-107598443D01*
X160052458Y-108566567D01*
X160051543Y-109614834D01*
X160451853Y-110583658D01*
X160917382Y-111050000D01*
X137532291Y-111050000D01*
X137995542Y-110587557D01*
X138397542Y-109619433D01*
X138397747Y-109383750D01*
X145796000Y-109383750D01*
X145796000Y-109709310D01*
X145892673Y-109942699D01*
X146071302Y-110121327D01*
X146304691Y-110218000D01*
X146780250Y-110218000D01*
X146939000Y-110059250D01*
X146939000Y-109225000D01*
X147193000Y-109225000D01*
X147193000Y-110059250D01*
X147351750Y-110218000D01*
X147827309Y-110218000D01*
X148060698Y-110121327D01*
X148239327Y-109942699D01*
X148336000Y-109709310D01*
X148336000Y-109383750D01*
X148177250Y-109225000D01*
X147193000Y-109225000D01*
X146939000Y-109225000D01*
X145954750Y-109225000D01*
X145796000Y-109383750D01*
X138397747Y-109383750D01*
X138398457Y-108571166D01*
X137998147Y-107602342D01*
X137257557Y-106860458D01*
X136289433Y-106458458D01*
X135241166Y-106457543D01*
X134272342Y-106857853D01*
X133806000Y-107323382D01*
X133806000Y-97146291D01*
X134268443Y-97609542D01*
X135236567Y-98011542D01*
X136284834Y-98012457D01*
X137253658Y-97612147D01*
X137995542Y-96871557D01*
X138397542Y-95903433D01*
X138398457Y-94855166D01*
X137998147Y-93886342D01*
X137532618Y-93420000D01*
X141492188Y-93420000D01*
X141428569Y-93513110D01*
M02*
