M48
;DRILL file {KiCad 4.0.7} date 08/23/19 12:17:50
;FORMAT={-:-/ absolute / metric / decimal}
FMAT,2
METRIC,TZ
T1C0.400
T2C1.000
%
G90
G05
M71
T1
X136.779Y-102.235
X136.779Y-103.378
X140.97Y-104.14
X145.415Y-100.711
X145.415Y-101.727
X145.415Y-105.791
X146.177Y-103.886
X146.431Y-102.997
X147.955Y-106.172
X149.225Y-102.235
X149.987Y-106.108
X150.241Y-109.22
X151.003Y-104.013
X155.067Y-105.791
X155.575Y-101.854
X155.575Y-103.759
T2
X142.875Y-94.615
X145.415Y-94.615
X147.955Y-94.615
X150.495Y-94.615
X153.035Y-94.615
X155.575Y-94.615
T0
M30
